<?xml version="1.0" encoding="utf-8"?>
<!-- Generator: Adobe Illustrator 19.0.0, SVG Export Plug-In . SVG Version: 6.00 Build 0)  -->
<svg version="1.1" id="Layer_1" xmlns="http://www.w3.org/2000/svg" xmlns:xlink="http://www.w3.org/1999/xlink" x="0px" y="0px"
	 viewBox="0 0 500 500" style="enable-background:new 0 0 500 500;" xml:space="preserve">
<style type="text/css">
	.st0{fill:url(#XMLID_100_);}
	.st1{fill:#0071B9;}
	.st2{fill:url(#XMLID_101_);}
	.st3{fill:#1D2C5E;}
	.st4{fill:url(#XMLID_105_);}
	.st5{fill:url(#XMLID_106_);}
	.st6{fill:#312370;}
	.st7{fill:#21386E;}
	.st8{fill:url(#XMLID_107_);}
	.st9{fill:url(#XMLID_108_);}
	.st10{fill:url(#XMLID_109_);}
	.st11{fill:#FFCB05;}
	.st12{fill:#7D7F68;}
	.st13{fill:#C7A008;}
	.st14{fill:#3C5AA6;}
	.st15{fill:#3567B0;}
	.st16{fill:#1E2D5F;}
	.st17{fill:#3466AF;}
	.st18{fill:url(#XMLID_110_);}
	.st19{fill:url(#XMLID_111_);}
</style>
<g id="XMLID_1_">
	
		<linearGradient id="XMLID_100_" gradientUnits="userSpaceOnUse" x1="0.9125" y1="-1.8027" x2="2.267" y2="-1.8027" gradientTransform="matrix(-10.0173 -18.6687 18.6687 -10.0173 128.3104 254.5534)">
		<stop  offset="0" style="stop-color:#0070B6"/>
		<stop  offset="1" style="stop-color:#1D2C5E"/>
	</linearGradient>
	<polygon id="XMLID_3_" class="st0" points="67.5,232.6 83.8,260.1 90.3,253.9 72.6,227.5 	"/>
	<polygon id="XMLID_4_" class="st1" points="309.4,211 308.7,214.6 316.5,212.1 315.5,207.7 	"/>
	
		<linearGradient id="XMLID_101_" gradientUnits="userSpaceOnUse" x1="0.4856" y1="-0.4305" x2="1.8401" y2="-0.4305" gradientTransform="matrix(12.7152 -13.624 13.624 12.7152 250.6945 216.0088)">
		<stop  offset="0" style="stop-color:#0070B6"/>
		<stop  offset="1" style="stop-color:#1D2C5E"/>
	</linearGradient>
	<polygon id="XMLID_5_" class="st2" points="264,186.2 238.9,215 246.2,212.9 270.1,183.1 	"/>
	<polygon id="XMLID_6_" class="st3" points="398.1,225.5 404.2,222.3 402.5,237.7 	"/>
	<polygon id="XMLID_7_" class="st3" points="359.8,235.4 365.3,236.5 372.3,233.1 366.2,230.9 	"/>
	
		<linearGradient id="XMLID_105_" gradientUnits="userSpaceOnUse" x1="0.538" y1="-1.4103" x2="1.8925" y2="-1.4103" gradientTransform="matrix(-1.5163 -12.7383 12.7383 -1.5163 194.6449 239.3996)">
		<stop  offset="0" style="stop-color:#0070B6"/>
		<stop  offset="1" style="stop-color:#1D2C5E"/>
	</linearGradient>
	<polygon id="XMLID_8_" class="st4" points="171.3,219.1 172.1,236.9 179.8,233.8 177.5,215.7 	"/>
	
		<linearGradient id="XMLID_106_" gradientUnits="userSpaceOnUse" x1="0.3334" y1="2.605" x2="1.6879" y2="2.605" gradientTransform="matrix(-0.6055 -11.498 11.498 -0.6055 334.2478 236.7744)">
		<stop  offset="0" style="stop-color:#125D9E"/>
		<stop  offset="1" style="stop-color:#1D2C5E"/>
	</linearGradient>
	<polygon id="XMLID_9_" class="st5" points="365.8,213.7 359.6,217 359.8,235.4 366,232.2 368,223.4 	"/>
	<polygon id="XMLID_10_" class="st6" points="364.9,236.6 358.1,296.7 369,294.6 371.1,233.3 	"/>
	<polygon id="XMLID_11_" class="st7" points="378.2,299.6 378.3,307.7 399.1,314.3 405.3,311.1 384.9,295.3 364.3,293.5 
		358.1,296.7 	"/>
	<polygon id="XMLID_12_" class="st7" points="301.1,285.2 306.2,282.5 309.5,288.5 314.3,285.9 315.3,293.8 345.4,299.1 
		351.5,295.8 309.8,270.4 280.3,275.5 274.6,281 	"/>
	
		<linearGradient id="XMLID_107_" gradientUnits="userSpaceOnUse" x1="-0.688" y1="-0.2495" x2="0.6665" y2="-0.2495" gradientTransform="matrix(-13.3434 21.228 -21.228 -13.3434 292.0414 220.1912)">
		<stop  offset="0" style="stop-color:#125D9E"/>
		<stop  offset="1" style="stop-color:#1D2C5E"/>
	</linearGradient>
	<polygon id="XMLID_13_" class="st8" points="291.5,211.3 285.5,214.6 274.6,281 280.7,277.8 291.2,240.5 	"/>
	<polygon id="XMLID_14_" class="st3" points="243.3,220.2 238.5,222.7 238.9,224.4 250.3,217.1 245.3,211.7 238.9,215 	"/>
	<polygon id="XMLID_15_" class="st7" points="256.5,298.6 207.2,274.2 213.4,269.5 262.6,295.3 	"/>
	<polygon id="XMLID_16_" class="st3" points="211.9,207.8 204.4,222 212.3,219.6 218,204.5 	"/>
	
		<linearGradient id="XMLID_108_" gradientUnits="userSpaceOnUse" x1="-0.5457" y1="1.2308" x2="0.8088" y2="1.2308" gradientTransform="matrix(9.098 17.8929 -17.8929 9.098 173.5517 253.6007)">
		<stop  offset="0" style="stop-color:#105FA1"/>
		<stop  offset="1" style="stop-color:#1D2C5E"/>
	</linearGradient>
	<path id="XMLID_17_" class="st9" d="M144.2,266.3l-6.3,4.3c0,0,1.3,7,3.1,11.9c1.7,4.9,5.9,8.8,5.9,8.8c2.6,2.6,5.9,4.5,9.5,5.5
		c7,2,14.8,0.7,21.6-3.6c1.8-1.1,4.2-2.9,5.6-4.3C176.9,293,144.2,266.3,144.2,266.3z"/>
	<polygon id="XMLID_18_" class="st3" points="177.9,235.5 183.6,298.8 207.1,295.3 213.4,292.1 184.3,231.7 178.3,233.7 
		172.1,236.9 	"/>
	
		<linearGradient id="XMLID_109_" gradientUnits="userSpaceOnUse" x1="-0.6159" y1="1.3352" x2="0.7386" y2="1.3352" gradientTransform="matrix(10.5295 24.4094 -24.4094 10.5295 139.1394 247.736)">
		<stop  offset="0" style="stop-color:#105FA1"/>
		<stop  offset="1" style="stop-color:#1D2C5E"/>
	</linearGradient>
	<polygon id="XMLID_19_" class="st10" points="89.9,257.5 116.1,316.9 141,308.9 147.1,304.8 95.4,250.7 89,254.6 83.8,260.1 	"/>
	<path id="XMLID_20_" class="st3" d="M349.8,285.5l0.4,2.9c2.1-0.2,4.4-0.5,6.3-1.2c2.2-0.8,7.1-2.9,9-4.5
		C364.7,282.9,353.3,285.9,349.8,285.5"/>
	<path id="XMLID_21_" class="st3" d="M261.6,270.3l0.9,4.7c5-0.8,9.4-2.6,13.6-5.2c2.7-1.6,5.6-4,6.5-4.6
		C282.1,265.6,261.6,270.3,261.6,270.3z"/>
	<path id="XMLID_26_" class="st11" d="M123,311.3L121,307l-24.9-55.5l-0.5-1.1l-1.1,0.5l-0.8,0.3l-4.4,2.2c-0.7-1.1-1.7-2.9-2.5-4.2
		l-10-16.9l-2.6-4.4l4.3-2.7c4.1-2.6,8.7-5,13.7-7.2c10-4.3,20.2-6.5,29.6-6.5c3.1,0,6,0.2,8.8,0.7c4.6,0.5,8.9,2.1,12.5,4.4
		c5.3,3,9.5,7.5,11.8,13c1.9,4.5,2.3,9.7,1.1,15.1l-0.7,3.2l2.6-1.9c1.8-1.3,3.7-2.4,5.8-3.3c3.5-1.5,7.2-2.2,10.8-2.2
		c3.5,0,6.7,0.7,9.7,2l1.9,0.9l-0.2-2.1l-0.8-9.1l-0.1-1.4l-1.4,0.4l-4.2,1.1l-0.7-15.5l30.8-9.9l-0.2,12l2.3,0.6l6.7-12.9
		l20.2,17.9l0.8,0.7l0.8-0.8c2.8-2.6,6-4.7,9.7-6.2l1.5-0.6l-1.1-1.3l-3.6-4.4l23.2-26.7l12.1,18.1l-18.6,10l-4.1,2.2l4.7,0.1
		c8.8,0.2,16.6,3.9,21.9,10.5l1.9,2.4l1.2,1.5l-2.1,2.2l-1.4,1.5l-4.6,4.9l-0.9,0.9l0.9,0.8l4.3,3.9l1.7,1.5l0.4-2.2l1.7-10.3
		l0.4-2.7l0,0l0.4-2.7l2.5-15.3h22.2h1l0.2-1l0.4-2.6h20l4.9,30.6l0.3,2l1.6-1.2c2-1.4,4.1-2.6,6.5-3.5c3.1-1.2,6.3-1.8,9.4-1.8
		c3.8,0,7.4,0.9,10.6,2.5c0.1,0.1,0.2,0.1,0.4,0.2l1.5,0.6l0.2-1.6l0.4-3.3l0.1-1.1l-1.1-0.2l-4.1-0.9l-0.2-16l31,6.8l2.3,11.5
		l2.4,0l2.4-9.9l25.8,6.3l-26.4,79.5l-18.9-5.9l-0.1-7.3l0-1l-1-0.1l-18.8-2.7l1.1-9.6l0.3-2.3l-2,1c-1,0.5-1.9,0.9-2.8,1.2
		c-3.1,1.2-6.2,1.8-9.4,1.8c-0.9,0-1.8-0.1-2.7-0.2l-1.6-0.2l0.3,1.6l1.3,8.4l-27.5-4.8l-1.4-12.5l-0.5-4l-1.9,3.6l-3.2,6.1
		l-5.8-10.8l-1.8-3.2l-0.6,3.6l-1.3,8.3l-24.1-3.8l1.9-11.4l0.4-2.6l-2.3,1.4c-3.9,2.4-8.5,4.1-13.8,5.4c-1.9,0.5-3.8,0.8-5.8,0.9
		l-1.1,0.1v1.1v21.6l-47.4-23.4l-1.8-0.9l0,2l0,20.1l-21.2,3.1l-0.9-9.6l-0.2-2.6l-1.8,1.8c-2.8,2.7-6,4.9-9.4,6.3
		c-3.5,1.5-7.1,2.2-10.7,2.2c-3.6,0-7-0.8-10.1-2.2c-5.7-2.7-9.8-7.7-11.6-14c-0.8-3-1.1-6.1-0.7-9.3l0.4-3.4l-2.5,2.4
		c-1.8,1.7-3.6,3.3-5.6,4.7l-0.7,0.5l0.2,0.8l7.1,27.4l1.3,4.9l-4.8,1.5l-13.5,4.3L123,311.3L123,311.3z M129,237.7
		c-0.7,0-1.4,0.1-2.1,0.2l-0.9,0.2l-1.4,0.3l0.4,1.3l0.3,0.9l3.8,12.6l0.4,1.2l0.6,1.8l1.4-1.3l0.9-0.8c3.7-3.4,5-6.8,4.2-11
		c-0.5-2.6-2.5-3.9-3.6-4.4C131.8,238,130.5,237.7,129,237.7z M232.1,238.1l-2.4,2.3l-6.3,6.2l-1.4,1.3l1.8,0.7l6.8,2.6l2.1,0.8
		l-0.4-2.2c-0.6-2.8-0.7-5.7-0.4-8.4L232.1,238.1L232.1,238.1z M259.8,231.1c-2.6,0-5.2,1.1-7,3.1c-2.7,3-3.3,7.4-1.3,11l0.5,1
		l0.8,1.5l1.2-1.3l0.8-0.8l9.3-10.6l0.7-0.8l1.2-1.3l-1.7-0.6l-1-0.4C262.1,231.3,261,231.1,259.8,231.1z"/>
	<polygon id="XMLID_27_" class="st12" points="274,246.8 273.7,247.1 274,246.8 	"/>
	<polygon id="XMLID_28_" class="st12" points="282,239.4 286.6,234.4 285,236.1 285.1,235.9 283.7,237.4 279,242.3 283.4,246.2 
		284.2,241.3 286.3,243.3 	"/>
	<polygon id="XMLID_29_" class="st12" points="282,239.4 286.3,243.3 288,232.9 286.6,234.4 	"/>
	<path id="XMLID_30_" class="st12" d="M224.2,247.4L224.2,247.4L224.2,247.4z"/>
	<path id="XMLID_31_" class="st13" d="M249.9,251.7c0.4,0.4,0,0.1,0.4,0.4l2.8-2c-0.4-0.3-0.8-0.6-1.2-1c-4.1-3.8-3-12.2-0.4-16.8
		C244.6,238,244.9,246.8,249.9,251.7"/>
	<path id="XMLID_32_" class="st13" d="M284.2,256.5c-4.7,3.9-10,6.4-17.1,8.1c-1.5,0.4-3.1,0.6-4.5,0.7c-11.2,1.1-20.6-4-24.2-12.4
		c-0.4-1-0.8-2-1-3.1c-1.6-7-0.2-13.3,3.2-18.2c0.3-0.5,0.7-0.9,1.1-1.4c-0.2,0.2-0.4,0.3-0.5,0.4c-1.3,1.2-2.5,2.5-3.5,3.9
		c-3.5,4.9-4.9,11.2-3.2,18.2c0.3,1.1,0.6,2.1,1,3.1c3.6,8.4,13,13.5,24.2,12.4c1.5-0.1,3-0.4,4.5-0.8c7.1-1.7,12.4-4.2,17.1-8.1
		c1.1-0.9,2.2-2,3.3-3.1l-0.1-0.1L284.2,256.5"/>
	<polygon id="XMLID_33_" class="st13" points="205.2,235.2 217.7,217.6 217.2,217.2 205.2,234.1 	"/>
	<polygon id="XMLID_34_" class="st13" points="288,232.9 286.3,243.3 284.2,241.3 283.4,246.2 279,242.3 283.7,237.4 285.1,235.9 
		285,236.1 286.6,234.4 	"/>
	<polygon id="XMLID_35_" class="st13" points="272.5,204 276.9,202.1 268.9,191.8 266.3,195.5 	"/>
	<path id="XMLID_36_" class="st13" d="M151.2,229.4c-20.2-24.6-56.7-11.4-69.8,0.1l0.5,0.9c3-1.7,6.2-3.3,9.5-4.7
		c13-5.6,25.4-7.2,35.4-5.4c3.5,0.4,7.2,1.4,10.5,3.6c4.5,2.5,7.9,6.1,9.9,10.7c3.5,8.1,0.4,18.9-7.9,27.9
		C149.7,253,156.8,243.8,151.2,229.4z"/>
	<path id="XMLID_37_" class="st13" d="M192.5,258.2c-0.1-0.4-0.2-0.9-0.3-1.3c-1.1-4.1-3.6-7.4-6.8-9.5c-5.2-3.5-12.4-4.3-19.7-1.2
		c-3.8,1.6-7.1,4.2-9.7,7.2c2-1.7,4.3-3.2,6.8-4.2c7.2-3.1,14.5-2.3,19.7,1.2c3.2,2.2,5.6,5.4,6.8,9.5c0.1,0.4,0.2,0.9,0.3,1.4
		c0.3,1.6,0.5,3.1,0.4,4.7c-0.2,4.7-1.9,9.5-4.8,13.5c-0.5,0.6-1,1.2-1.5,1.8c1.7-1.4,3.1-3,4.4-4.8c2.9-4,4.7-8.8,4.8-13.5
		C192.9,261.3,192.8,259.7,192.5,258.2"/>
	<path id="XMLID_38_" class="st13" d="M172.5,252.1l2.9-2.9c-3.7-0.1-5.3,3.4-5.4,3.6C170.8,252.5,171.6,252.2,172.5,252.1"/>
	<path id="XMLID_39_" class="st13" d="M179.5,256.4c0.2,0.5,0.2,1,0.2,1.5c0,0.8-0.2,1.5-0.5,2.2c0.6-0.3,4.9-2.4,3.2-6.8
		C182.6,253.5,179.4,256.4,179.5,256.4"/>
	<path id="XMLID_40_" class="st13" d="M162.7,258.9c0-1.8,3.1-6.2,4.1-7.7c-4.9,3.1-7,7.3-7,10.6c0,5.7,5,10.2,10.9,10.2
		c2.8,0,8-1.5,11.4-7c-1.8,1.2-6.3,4-8.6,4C167.4,269.1,162.7,264.6,162.7,258.9"/>
	<polygon id="XMLID_41_" class="st13" points="204.6,264.1 204.7,287 208.3,287.2 207.6,261.1 	"/>
	<polygon id="XMLID_42_" class="st13" points="183.7,220.3 183.8,222.4 201,217.2 202.3,239.2 205.2,235.2 204.6,213.1 	"/>
	<polygon id="XMLID_43_" class="st13" points="235.9,228.2 219.7,213.3 217.7,217.6 232,231.1 	"/>
	<path id="XMLID_44_" class="st13" d="M233.4,256l-19-6.3l-2.8,2.9l19,7.6c2.2,4.1,5.4,7.5,9.5,10.1c4,2.4,8.5,3.9,13.3,4.3v9.4
		l2.9,1.5l0.9-14.1L233.4,256L233.4,256z"/>
	<path id="XMLID_45_" class="st13" d="M264,253.3c4.7-1.1,7.4-3.6,9.7-6.3c-1.7,1.4-10.5,3.3-12,3.8l-2.9,3.1
		C260.2,254.1,262.4,253.7,264,253.3"/>
	<path id="XMLID_46_" class="st13" d="M255.5,220.9c-8.6,1.1-13.1,8.4-13.9,9.3c3.2-2.7,7.2-4.7,11.7-5.8
		c10.7-2.6,20.1,0.7,25.9,7.9l3.6-3C277.1,222.2,266.2,218.4,255.5,220.9"/>
	<path id="XMLID_47_" class="st13" d="M284.5,256.2c1-0.9,2.9-1.8,3.9-2.8l-11.6-10.3c-0.9,1.1-1.7,2.8-2.8,3.7L284.5,256.2
		L284.5,256.2z"/>
	<path id="XMLID_48_" class="st13" d="M343.7,283.9c-12.1-10-11.4-31.3-5.4-38.1l-5.3-33.5l-11.7,1.5l-0.5,2.9h8.8l4.7,30.4
		c-6,6.8-8.8,15.9-6.8,24.2c1.5,6.4,5.5,11.7,11.2,14.7c0.6,0.3,1.2,0.6,1.8,0.8l0.1,0.4l3.5,0.5
		C343.9,287.9,344.3,284.2,343.7,283.9L343.7,283.9z"/>
	<polygon id="XMLID_49_" class="st13" points="297.2,217.2 296.7,220.2 310,220.2 313.9,241.7 316.9,238.7 313.7,216 	"/>
	<polygon id="XMLID_50_" class="st13" points="320,259 315.7,270.1 316.7,273 322.9,256.1 	"/>
	<polygon id="XMLID_51_" class="st13" points="307.2,252 304.2,254.9 301.1,275 304.1,276.2 	"/>
	<path id="XMLID_52_" class="st13" d="M367,245.6c1.7,1.2,3.2,2.8,4.3,4.7c0.9,1.4,1.6,3,2,4.8c1.5,6-0.3,12.6-4.1,17.8
		c-0.4,0.5-0.8,1-1.2,1.5c1.6-1.3,20.5-15.3,2-33.6c-20.3-6.7-28,6.6-28.7,7.4c2.1-1.8,4.6-3.3,7.3-4.4
		C355.4,241.2,362.2,242.1,367,245.6"/>
	<path id="XMLID_53_" class="st13" d="M356.8,246.9c0.1,0.1,2.9-3,3-3c-3.6,0.1-5.4,1.9-5.2,2.7c-0.2,0.3-0.4,0.6-0.5,1
		C354.8,247.2,356.2,246.9,356.8,246.9"/>
	<path id="XMLID_54_" class="st13" d="M363.6,251.5c0.1,0.5,0.2,1,0.2,1.5c0,0.7-0.2,1.3-0.5,1.9c0.5-0.2,4.9-1.6,3.3-6.4
		C366.6,248.6,363.5,251.5,363.6,251.5"/>
	<path id="XMLID_55_" class="st13" d="M354,266.8c4.1,0.2,8.6-2.3,11.9-6.8c-8.3,1.7-17.1-12.2-16.2-13.5c-3.1,2.3-5.9,6.7-6.1,9.8
		C343.3,261.9,348,266.5,354,266.8"/>
	<polygon id="XMLID_56_" class="st13" points="399.6,302.9 401.5,304.2 425.4,232.7 407.5,228.6 407.3,232.8 421.7,236 	"/>
	<polygon id="XMLID_57_" class="st13" points="371.3,220.9 371.5,224.9 390.4,228.7 397.7,263.3 400.7,260.4 393.7,225.4 	"/>
	<polygon id="XMLID_58_" class="st13" points="385.9,260.4 380.7,289.9 383.7,290.9 388.9,257.5 	"/>
	<polygon id="XMLID_59_" class="st13" points="139.9,300.7 131,268.6 127.8,270.8 136,301.6 	"/>
	<path id="XMLID_60_" class="st13" d="M137.6,252.4c-2,2.2-6.6,6.4-9.2,8l-1.6-5l-3.4-11l-2.2-7.5l-2.1,2.7l2.2,7.5l3.4,11l1.6,5.1
		C129.8,260.9,135,256.6,137.6,252.4"/>
	<path id="XMLID_61_" class="st12" d="M263.2,233.4c-2.8-1.1-6.8-0.8-8.9,1.6c-0.5,0.5-1.5,1.9-1.8,2.5c2.1-1.6,5.8-2,8.2-1.1
		L263.2,233.4z"/>
	<path id="XMLID_62_" class="st12" d="M135,243.3c-0.3-1.7-1.9-3-2.7-3.3c-1.4-0.7-3.9-0.8-5.7-0.5c0.3,1.1,0.7,2.4,0.8,3
		c0.7,0.1,1.9,0.3,2.5,0.6c0.8,0.4,2.2,1.3,2.5,2.9c0.4,2.2,0.3,4.3-0.6,6C134.4,249.5,135.7,246.8,135,243.3"/>
	<path id="XMLID_65_" class="st14" d="M139.5,243.3c-1.2-6.5-9.8-10.1-18.2-5.5l2.2,7.5l3.4,11.1l1.6,5
		C134.8,257.3,141.2,252.3,139.5,243.3z M131.1,253.3c-0.9-3-3-9.5-3-9.5c0,0-0.4-1.4-0.9-3c1.8-0.3,3.5-0.2,4.9,0.5
		c0.8,0.4,2.2,1.3,2.5,2.9C135.4,248,134.1,250.6,131.1,253.3z"/>
	<path id="XMLID_68_" class="st15" d="M267.7,232.9c-4.7-4.3-12.1-4-16.4,0.7c-4.3,4.7-4,12.1,0.7,16.4c0.4,0.4,0.8,0.7,1.2,1
		l15.3-17.3C268.2,233.5,267.9,233.2,267.7,232.9z M253.2,245.1c-1.5-2.7-1.2-6.2,1-8.7c2.1-2.3,5.4-3,8.2-1.9L253.2,245.1z"/>
	<polygon id="XMLID_69_" class="st16" points="288.1,231 279.6,239.2 287.6,246.4 	"/>
	<path id="XMLID_70_" class="st17" d="M366.5,248.5c0.1,0.5,0.2,1,0.2,1.6c-0.1,3.2-3.2,5.7-6.8,5.6c-3.6-0.1-6.5-2.9-6.3-6.1
		c0.1-3,2.8-5.4,6.1-5.6c-0.6-0.1-1.3-0.2-2-0.2c-6.1-0.3-11,4-11.2,9.4c-0.2,5.7,4.3,10.4,10.3,10.6c6.1,0.2,11-4.1,11.3-9.7
		C368.1,252,367.6,250.1,366.5,248.5"/>
	
		<linearGradient id="XMLID_110_" gradientUnits="userSpaceOnUse" x1="-1.418" y1="-0.1226" x2="-6.344432e-002" y2="-0.1226" gradientTransform="matrix(15.929 0 0 -15.929 185.2482 257.0908)">
		<stop  offset="0" style="stop-color:#3C5AA6"/>
		<stop  offset="0.9331" style="stop-color:#2B73B9"/>
		<stop  offset="1" style="stop-color:#2A75BB"/>
	</linearGradient>
	<path id="XMLID_71_" class="st18" d="M182.7,255c0,3.2-3,5.8-6.6,5.8c-3.6,0-6.6-2.6-6.6-5.8c0-3,2.6-5.5,5.9-5.8
		c-0.6-0.1-1.3-0.2-2-0.2c-6.1,0-10.8,4.5-10.8,9.8c0,5.7,4.8,10.2,10.7,10.2c6.1,0,10.8-4.5,10.8-10.2c0-2-0.7-3.8-1.8-5.4
		C182.6,254,182.7,254.5,182.7,255"/>
	
		<linearGradient id="XMLID_111_" gradientUnits="userSpaceOnUse" x1="-0.1725" y1="4.817625e-003" x2="1.182" y2="4.817625e-003" gradientTransform="matrix(265.743 0 0 -265.743 118.3926 249.218)">
		<stop  offset="0" style="stop-color:#3C5AA6"/>
		<stop  offset="0.9331" style="stop-color:#2B73B9"/>
		<stop  offset="1" style="stop-color:#2A75BB"/>
	</linearGradient>
	<path id="XMLID_83_" class="st19" d="M404.2,222.2l-2.7,11.1L399,221l-33.3-7.3l0.2,18.5l5,1.1l-0.4,3.3l-0.1-0.1
		c-6.2-3.3-13.9-3.6-21.2-0.9c-2.4,0.9-4.7,2.2-6.7,3.6l-5-31.7h-22.1l-0.6,3.6h-23.3l-2.7,16.3l-1.9-2.4
		c-5.6-6.9-13.8-10.8-22.9-10.9l19.8-10.6l-13.8-20.6l-24.9,28.7l4.3,5.2c-3.9,1.6-7.3,3.8-10.1,6.4L218,204.5l-7.5,14.3l0.3-13.8
		l-33.4,10.7l0.9,17.9l5.7-1.5l0.8,9.1c-6.5-2.9-14.3-2.8-21.5,0.2c-2.1,0.9-4.1,2.1-6,3.4c1.3-5.5,1-11-1.2-15.9
		c-2.5-5.8-6.9-10.5-12.3-13.5c-3.8-2.5-8.3-4.1-13-4.6c-11.6-2-25.4,0.1-39.1,5.9c-5,2.1-9.7,4.6-13.9,7.3l-5.3,3.4l3.2,5.4
		l10,16.9l3.1,5.2l5.4-2.7L95,252l24.9,55.5l2.4,5.3l5.6-1.8l13.5-4.3l5.9-1.9l-1.6-6l-7.1-27.4c2.1-1.5,4-3.1,5.7-4.8
		c-0.4,3.3-0.2,6.6,0.7,9.8c1.9,6.6,6.2,11.9,12.3,14.8c6.5,3.1,14.5,3.1,21.8,0c3.7-1.6,7-3.9,9.8-6.6l1,10.9l23.6-3.5l0-21.1
		l49.2,24.3v-23.6c2-0.2,4-0.5,6-1c5.4-1.3,10.1-3.1,14.2-5.6l-2.1,12.6l26.5,4.2l1.5-9.5l6.9,12.8l4.2-8.2l1.5,13.4l30.1,5.3
		l-1.6-10.1c4.1,0.5,8.5-0.1,12.7-1.7c1-0.4,2-0.8,2.9-1.3l-1.2,10.8l20,2.8l0.1,8.2l20.9,6.6l27.2-81.9L404.2,222.2L404.2,222.2z
		 M286.6,234.4l1.4-1.5l-1.7,10.3l-4.3-3.9L286.6,234.4z M269,192.2l7.3,9.9l-20.8,10.3l-1.4-2.2L269,192.2z M131,268.6l8.3,31.9
		l-13.5,4.3l-27.6-61.7c-1.5,0.8-4.3,2.1-6.8,3.4l-10-16.9c4-2.5,8.3-4.8,13-6.8c13-5.5,25.4-7.2,35.4-5.4c3.5,0.4,7.2,1.4,10.5,3.6
		c4.5,2.5,7.9,6.1,9.9,10.7C154.9,242.8,146.9,258.8,131,268.6z M192.9,262.9c-0.2,4.8-1.9,9.5-4.8,13.5c-2.8,3.9-6.7,7.1-11.2,9.1
		c-11.7,4.9-23.4,0-26.5-11.1c-3-10.7,4-23.5,15.3-28.4c7.2-3.1,14.5-2.3,19.7,1.2c3.2,2.2,5.7,5.4,6.8,9.5c0.1,0.4,0.2,0.9,0.3,1.3
		C192.8,259.7,192.9,261.3,192.9,262.9z M256.4,285.5L207.6,261l0.1,25.6l-12.6,1.7l-0.9-10.5c3.9-6.7,5.3-14.6,3.3-21.8
		c-1.1-4-3.2-7.4-6-10.2l-1.8-21.5l-5.7,1.5l-0.3-5.4l20.3-6l1.2,20.9l14.9-21l14.6,13.9l-20.4,21.5l19.2,7.6
		c2.1,4.1,5.4,7.5,9.5,10.1c4,2.4,8.5,3.9,13.3,4.4L256.4,285.5L256.4,285.5z M231,250.1l-6.8-2.6l6.3-6.2
		C230.3,244.1,230.4,247.1,231,250.1z M284.2,256.5c-4.7,3.9-10,6.4-17.1,8.1c-1.5,0.4-3.1,0.6-4.5,0.7c-11.2,1.1-20.6-4-24.2-12.4
		c-0.4-1-0.8-2-1-3.1c-1.6-7-0.2-13.3,3.2-18.2c1-1.4,2.2-2.7,3.5-3.9c3.3-2.9,7.4-5,12.2-6.2c10.7-2.6,20.1,0.7,25.8,7.8
		l-20.3,21.6c1.4,0.3,3.6-0.1,5.2-0.5c4.8-1.2,7.6-3.8,9.9-6.6l8.1,7.3l2.5,2.2C286.4,254.5,285.3,255.5,284.2,256.5z M327.3,285.4
		l-4.4-29.3l-6.3,16.2l-9.4-20.2h-0.1l-3.7,23.4l-15.6-2.7l2.2-13.1c0.6-0.6,1.2-1.1,1.7-1.7l5.1-5.2l-4.9-4.4l5.2-31.1h15.8
		l3.9,21.5l4.4-24.9h11.3l4.7,30.4c-6,6.8-8.8,15.9-6.9,24.2c1.5,6.5,5.5,11.7,11.2,14.7c0.6,0.3,1.2,0.6,1.8,0.8l0.6,3.9
		L327.3,285.4L327.3,285.4z M366.2,275.8c-1.7,1.2-3.6,2.3-5.7,3c-4,1.5-8,1.9-11.6,1.1c-2.5-0.5-4.7-1.5-6.7-2.9
		c-3.1-2.3-5.4-5.6-6.5-9.8c-1.2-5.1-0.1-10.4,2.6-15.2c1.4-2.3,3.1-4.5,5.1-6.4c2.3-2.1,5-3.7,7.9-4.9c6.9-2.6,13.7-1.7,18.5,1.8
		c1.8,1.2,3.2,2.8,4.4,4.7c0.9,1.5,1.5,3.1,2,4.8c1.5,6.1-0.3,12.6-4.1,17.8C370.5,272.2,368.5,274.2,366.2,275.8z M401.4,303.4
		l-11.5-3.4l-1-42.6l-5.8,32.8l-12.6-2l0.9-9.5c8.2-6.9,12.6-17.9,10.2-27.8c-1-4.4-3.3-8.2-6.5-11.1l1.1-11.2l-4.8-1.3l0.3-6
		l21.7,4.4l7.3,34.6l7.5-31l16.5,3.6L401.4,303.4L401.4,303.4z"/>
	<polygon id="XMLID_84_" points="410.9,307.5 410.9,304.2 409.7,304.2 409.7,303.8 412.6,303.8 412.6,304.2 411.4,304.2 
		411.4,307.5 	"/>
	<path id="XMLID_85_" d="M413,307.5v-3.6h0.7l0.9,2.6c0.1,0.2,0.1,0.4,0.2,0.5c0-0.1,0.1-0.3,0.2-0.6l0.9-2.5h0.6v3.6h-0.5v-3
		l-1.1,3h-0.4l-1.1-3.1v3.1H413z"/>
</g>
</svg>
