<?xml version="1.0" encoding="UTF-8" standalone="no"?>
<svg xmlns="http://www.w3.org/2000/svg" viewBox="0 0 1000 362.97">
  <path fill="#FFCB05" d="M265.93 82.95c-11.29-25.11-27.23-46.71-47.52-64.35C197.13 0.25 171.56-3.85 145.12 3c-25.86 6.68-47.3 19.69-64.14 38.77-8.09 9.17-14.92 19.28-20.41 30.24-0.67 1.32-1.54 2.54-2.79 3.48-1.24 0.94-2.67 1.56-4.19 1.82-1.52 0.26-3.08 0.15-4.54-0.32-1.46-0.47-2.77-1.28-3.82-2.37-2.15-2.24-3.19-5.29-2.83-8.32 0.36-3.03 2.06-5.77 4.64-7.47 12.73-8.44 26.86-14.66 41.82-18.39 28.38-7.07 57.35-3.65 83.46 9.87 26.11 13.52 46.21 35.49 57.82 63.25 11.61 27.76 13.17 58.09 4.47 86.8-8.7 28.71-27.04 53.06-52.81 70.1-25.77 17.04-56.21 24.48-87.57 21.4-31.36-3.08-60.52-17.47-83.67-41.31-23.15-23.84-37.72-54.79-41.81-87.87-0.49-4.02-0.83-8.06-1.01-12.11-0.09-1.95 0.63-3.85 1.97-5.22 1.34-1.37 3.19-2.14 5.11-2.14 1.92 0 3.77 0.77 5.11 2.14 1.34 1.37 2.06 3.27 1.97 5.22 0.17 3.5 0.45 7 0.85 10.47 3.66 29.55 16.67 57.25 37.35 79.37 20.68 22.12 47.13 35.25 75.85 37.6 28.72 2.35 57.03-4.24 81.15-18.89 24.12-14.65 42.13-36.66 51.68-63.21 9.55-26.55 9.52-55.46-0.1-82-0.24-0.67-0.49-1.34-0.75-2.01z"/>
  <path fill="#FFCB05" d="M247.09 156.42c0 21.68-8.61 42.47-23.93 57.79-15.32 15.32-36.11 23.93-57.79 23.93-21.68 0-42.47-8.61-57.79-23.93-15.32-15.32-23.93-36.11-23.93-57.79 0-21.68 8.61-42.47 23.93-57.79 15.32-15.32 36.11-23.93 57.79-23.93 21.68 0 42.47 8.61 57.79 23.93 15.32 15.32 23.93 36.11 23.93 57.79z"/>
  <path fill="#000" d="M165.37 217.54c33.76 0 61.12-27.36 61.12-61.12s-27.36-61.12-61.12-61.12-61.12 27.36-61.12 61.12 27.36 61.12 61.12 61.12z"/>
  <path fill="#fff" d="M165.37 109.29c25.98 0 47.13 21.15 47.13 47.13s-21.15 47.13-47.13 47.13-47.13-21.15-47.13-47.13 21.15-47.13 47.13-47.13z"/>
  <path fill="#000" d="M165.37 134.27c12.23 0 22.15 9.92 22.15 22.15s-9.92 22.15-22.15 22.15-22.15-9.92-22.15-22.15 9.92-22.15 22.15-22.15z"/>
  <path fill="#fff" d="M160.37 147.26c4.42 0 8 3.58 8 8s-3.58 8-8 8-8-3.58-8-8 3.58-8 8-8z"/>
  <path fill="#C7A008" d="M165.37 94.3c15.7 0 30.75 6.23 41.85 17.33s17.33 26.15 17.33 41.85c0 15.7-6.23 30.75-17.33 41.85s-26.15 17.33-41.85 17.33c-15.7 0-30.75-6.23-41.85-17.33s-17.33-26.15-17.33-41.85c0-15.7 6.23-30.75 17.33-41.85s26.15-17.33 41.85-17.33m0-14c-40.53 0-73.18 32.65-73.18 73.18s32.65 73.18 73.18 73.18 73.18-32.65 73.18-73.18-32.65-73.18-73.18-73.18z"/>
  <path fill="#C7A008" d="M165.37 119.28c9.77 0 19.14 3.88 26.05 10.79 6.91 6.91 10.79 16.28 10.79 26.05 0 9.77-3.88 19.14-10.79 26.05-6.91 6.91-16.28 10.79-26.05 10.79-9.77 0-19.14-3.88-26.05-10.79-6.91-6.91-10.79-16.28-10.79-26.05 0-9.77 3.88-19.14 10.79-26.05 6.91-6.91 16.28-10.79 26.05-10.79m0-10c-25.87 0-46.84 20.97-46.84 46.84s20.97 46.84 46.84 46.84 46.84-20.97 46.84-46.84-20.97-46.84-46.84-46.84z"/>
  <path fill="#C7A008" d="M165.37 139.27c4.71 0 9.23 1.87 12.56 5.2 3.33 3.33 5.2 7.85 5.2 12.56 0 4.71-1.87 9.23-5.2 12.56-3.33 3.33-7.85 5.2-12.56 5.2-4.71 0-9.23-1.87-12.56-5.2-3.33-3.33-5.2-7.85-5.2-12.56 0-4.71 1.87-9.23 5.2-12.56 3.33-3.33 7.85-5.2 12.56-5.2m0-5c-12.57 0-22.76 10.19-22.76 22.76s10.19 22.76 22.76 22.76 22.76-10.19 22.76-22.76-10.19-22.76-22.76-22.76z"/>
  <path fill="#C7A008" d="M160.37 152.26c1.66 0 3 1.34 3 3s-1.34 3-3 3-3-1.34-3-3 1.34-3 3-3m0-5c-4.42 0-8 3.58-8 8s3.58 8 8 8 8-3.58 8-8-3.58-8-8-8z"/>
  <path fill="#FFCB05" d="M368.45 82.97c-11.29-25.11-27.23-46.71-47.52-64.35-21.28-18.35-46.85-22.45-73.29-15.6-25.86 6.68-47.3 19.69-64.14 38.77-8.09 9.17-14.92 19.28-20.41 30.24-0.67 1.32-1.54 2.54-2.79 3.48-1.24 0.94-2.67 1.56-4.19 1.82-1.52 0.26-3.08 0.15-4.54-0.32-1.46-0.47-2.77-1.28-3.82-2.37-2.15-2.24-3.19-5.29-2.83-8.32 0.36-3.03 2.06-5.77 4.64-7.47 12.73-8.44 26.86-14.66 41.82-18.39 28.38-7.07 57.35-3.65 83.46 9.87 26.11 13.52 46.21 35.49 57.82 63.25 11.61 27.76 13.17 58.09 4.47 86.8-8.7 28.71-27.04 53.06-52.81 70.1-25.77 17.04-56.21 24.48-87.57 21.4-31.36-3.08-60.52-17.47-83.67-41.31-23.15-23.84-37.72-54.79-41.81-87.87-0.49-4.02-0.83-8.06-1.01-12.11-0.09-1.95 0.63-3.85 1.97-5.22 1.34-1.37 3.19-2.14 5.11-2.14 1.92 0 3.77 0.77 5.11 2.14 1.34 1.37 2.06 3.27 1.97 5.22 0.17 3.5 0.45 7 0.85 10.47 3.66 29.55 16.67 57.25 37.35 79.37 20.68 22.12 47.13 35.25 75.85 37.6 28.72 2.35 57.03-4.24 81.15-18.89 24.12-14.65 42.13-36.66 51.68-63.21 9.55-26.55 9.52-55.46-0.1-82-0.24-0.67-0.49-1.34-0.75-2.01z"/>
  <path fill="#FFCB05" d="M349.61 156.44c0 21.68-8.61 42.47-23.93 57.79-15.32 15.32-36.11 23.93-57.79 23.93-21.68 0-42.47-8.61-57.79-23.93-15.32-15.32-23.93-36.11-23.93-57.79 0-21.68 8.61-42.47 23.93-57.79 15.32-15.32 36.11-23.93 57.79-23.93 21.68 0 42.47 8.61 57.79 23.93 15.32 15.32 23.93 36.11 23.93 57.79z"/>
  <path fill="#000" d="M267.89 217.56c33.76 0 61.12-27.36 61.12-61.12s-27.36-61.12-61.12-61.12-61.12 27.36-61.12 61.12 27.36 61.12 61.12 61.12z"/>
  <path fill="#fff" d="M267.89 109.31c25.98 0 47.13 21.15 47.13 47.13s-21.15 47.13-47.13 47.13-47.13-21.15-47.13-47.13 21.15-47.13 47.13-47.13z"/>
  <path fill="#000" d="M267.89 134.29c12.23 0 22.15 9.92 22.15 22.15s-9.92 22.15-22.15 22.15-22.15-9.92-22.15-22.15 9.92-22.15 22.15-22.15z"/>
  <path fill="#fff" d="M262.89 147.28c4.42 0 8 3.58 8 8s-3.58 8-8 8-8-3.58-8-8 3.58-8 8-8z"/>
  <path fill="#C7A008" d="M267.89 94.32c15.7 0 30.75 6.23 41.85 17.33s17.33 26.15 17.33 41.85c0 15.7-6.23 30.75-17.33 41.85s-26.15 17.33-41.85 17.33c-15.7 0-30.75-6.23-41.85-17.33s-17.33-26.15-17.33-41.85c0-15.7 6.23-30.75 17.33-41.85s26.15-17.33 41.85-17.33m0-14c-40.53 0-73.18 32.65-73.18 73.18s32.65 73.18 73.18 73.18 73.18-32.65 73.18-73.18-32.65-73.18-73.18-73.18z"/>
  <path fill="#C7A008" d="M267.89 119.3c9.77 0 19.14 3.88 26.05 10.79 6.91 6.91 10.79 16.28 10.79 26.05 0 9.77-3.88 19.14-10.79 26.05-6.91 6.91-16.28 10.79-26.05 10.79-9.77 0-19.14-3.88-26.05-10.79-6.91-6.91-10.79-16.28-10.79-26.05 0-9.77 3.88-19.14 10.79-26.05 6.91-6.91 16.28-10.79 26.05-10.79m0-10c-25.87 0-46.84 20.97-46.84 46.84s20.97 46.84 46.84 46.84 46.84-20.97 46.84-46.84-20.97-46.84-46.84-46.84z"/>
  <path fill="#C7A008" d="M267.89 139.29c4.71 0 9.23 1.87 12.56 5.2 3.33 3.33 5.2 7.85 5.2 12.56 0 4.71-1.87 9.23-5.2 12.56-3.33 3.33-7.85 5.2-12.56 5.2-4.71 0-9.23-1.87-12.56-5.2-3.33-3.33-5.2-7.85-5.2-12.56 0-4.71 1.87-9.23 5.2-12.56 3.33-3.33 7.85-5.2 12.56-5.2m0-5c-12.57 0-22.76 10.19-22.76 22.76s10.19 22.76 22.76 22.76 22.76-10.19 22.76-22.76-10.19-22.76-22.76-22.76z"/>
  <path fill="#C7A008" d="M262.89 152.28c1.66 0 3 1.34 3 3s-1.34 3-3 3-3-1.34-3-3 1.34-3 3-3m0-5c-4.42 0-8 3.58-8 8s3.58 8 8 8 8-3.58 8-8-3.58-8-8-8z"/>
</svg> 